<?xml version="1.0" encoding="utf-8"?>
<svg viewBox="28 28 85 85" xmlns="http://www.w3.org/2000/svg">
  <path d="M 63.211 20.711 L 78.211 20.711 C 80.972 20.711 83.211 23.731 83.211 27.457 L 83.211 58.211 L 115.711 58.211 C 118.472 58.211 120.711 60.45 120.711 63.211 L 120.711 78.211 C 120.711 80.972 118.472 83.211 115.711 83.211 L 83.211 83.211 L 83.211 113.965 C 83.211 117.691 80.972 120.711 78.211 120.711 L 63.211 120.711 C 60.45 120.711 58.211 117.691 58.211 113.965 L 58.211 83.211 L 25.711 83.211 C 22.95 83.211 20.711 80.972 20.711 78.211 L 20.711 63.211 C 20.711 60.45 22.95 58.211 25.711 58.211 L 58.211 58.211 L 58.211 27.457 C 58.211 23.731 60.45 20.711 63.211 20.711 Z" style="fill: rgb(249,110,70); stroke: rgb(0, 0, 0);" transform="matrix(0.707107, 0.707107, -0.707107, 0.707107, 70.711, -29.289459)"/>
</svg>
